<svg version="1.1" viewBox="0.0 0.0 720.0 540.0" fill="none" stroke="none" stroke-linecap="square" stroke-miterlimit="10" xmlns:xlink="http://www.w3.org/1999/xlink" xmlns="http://www.w3.org/2000/svg"><clipPath id="p.0"><path d="m0 0l720.0 0l0 540.0l-720.0 0l0 -540.0z" clip-rule="nonzero"/></clipPath><g clip-path="url(#p.0)"><path fill="#000000" fill-opacity="0.0" d="m0 0l720.0 0l0 540.0l-720.0 0z" fill-rule="evenodd"/><path fill="#000000" d="m3.4698162 136.81364l0 0c0 -70.13581 59.620163 -126.99212 133.16536 -126.99212l0 0c35.317642 0 69.18877 13.379489 94.162125 37.195133c24.973343 23.815643 39.003235 56.116585 39.003235 89.79699l0 0c0 70.13582 -59.62018 126.99214 -133.16536 126.99214l0 0c-73.5452 0 -133.16536 -56.856323 -133.16536 -126.99214z" fill-rule="evenodd"/><path stroke="#000000" stroke-width="1.0" stroke-linejoin="round" stroke-linecap="butt" d="m3.4698162 136.81364l0 0c0 -70.13581 59.620163 -126.99212 133.16536 -126.99212l0 0c35.317642 0 69.18877 13.379489 94.162125 37.195133c24.973343 23.815643 39.003235 56.116585 39.003235 89.79699l0 0c0 70.13582 -59.62018 126.99214 -133.16536 126.99214l0 0c-73.5452 0 -133.16536 -56.856323 -133.16536 -126.99214z" fill-rule="evenodd"/><path fill="#000000" d="m12.729659 136.81364l0 0c0 -65.56968 55.47439 -118.7244 123.90552 -118.7244l0 0c32.86177 0 64.377625 12.508429 87.614426 34.773575c23.236786 22.265148 36.291077 52.46316 36.291077 83.950836l0 0c0 65.56969 -55.47438 118.72441 -123.9055 118.72441l0 0c-68.43113 0 -123.90552 -53.154724 -123.90552 -118.72441z" fill-rule="evenodd"/><path stroke="#f3f3f3" stroke-width="4.0" stroke-linejoin="round" stroke-linecap="butt" d="m12.729659 136.81364l0 0c0 -65.56968 55.47439 -118.7244 123.90552 -118.7244l0 0c32.86177 0 64.377625 12.508429 87.614426 34.773575c23.236786 22.265148 36.291077 52.46316 36.291077 83.950836l0 0c0 65.56969 -55.47438 118.72441 -123.9055 118.72441l0 0c-68.43113 0 -123.90552 -53.154724 -123.90552 -118.72441z" fill-rule="evenodd"/><path fill="#000000" fill-opacity="0.0" d="m70.51706 98.6168l108.409454 0l0 37.16535l-108.409454 0z" fill-rule="evenodd"/><path fill="#cc0000" d="m94.157684 119.3443l-2.546875 0l-0.34375 -2.265625q-0.515625 -0.515625 -1.28125 -0.796875q-0.765625 -0.296875 -1.8125 -0.296875q-2.21875 0 -3.421875 1.625q-1.203125 1.609375 -1.203125 4.203125l0 0.609375q0 2.59375 1.1875 4.234375q1.203125 1.625 3.390625 1.625q1.0 0 1.828125 -0.296875q0.84375 -0.296875 1.3125 -0.796875l0.34375 -2.28125l2.546875 0l0 3.375q-1.03125 1.203125 -2.640625 1.921875q-1.59375 0.703125 -3.578125 0.703125q-3.421875 0 -5.625 -2.375q-2.1875 -2.390625 -2.1875 -6.109375l0 -0.578125q0 -3.71875 2.171875 -6.109375q2.1875 -2.390625 5.640625 -2.390625q1.984375 0 3.578125 0.71875q1.59375 0.71875 2.640625 1.90625l0 3.375zm17.160156 2.90625q0 3.75 -2.140625 6.203125q-2.140625 2.453125 -5.609375 2.453125q-3.453125 0 -5.59375 -2.453125q-2.125 -2.453125 -2.125 -6.203125l0 -0.25q0 -3.734375 2.125 -6.1875q2.125 -2.46875 5.578125 -2.46875q3.46875 0 5.609375 2.46875q2.15625 2.453125 2.15625 6.1875l0 0.25zm-3.40625 -0.28125q0 -2.640625 -1.109375 -4.296875q-1.09375 -1.65625 -3.25 -1.65625q-2.15625 0 -3.21875 1.640625q-1.0625 1.640625 -1.0625 4.3125l0 0.28125q0 2.703125 1.078125 4.34375q1.078125 1.640625 3.21875 1.640625q2.171875 0 3.25 -1.640625q1.09375 -1.640625 1.09375 -4.34375l0 -0.28125zm12.453125 -8.375q3.140625 0 5.15625 2.0q2.03125 2.0 2.03125 5.125l0 2.828125q0 3.140625 -2.03125 5.125q-2.015625 1.984375 -5.15625 1.984375l-7.671875 0l0 -2.046875l1.8125 -0.359375l0 -12.25l-1.8125 -0.34375l0 -2.0625l1.8125 0l5.859375 0zm-2.4375 2.640625l0 11.796875l2.265625 0q1.84375 0 2.875 -1.234375q1.046875 -1.25 1.046875 -3.25l0 -2.859375q0 -1.96875 -1.046875 -3.203125q-1.03125 -1.25 -2.875 -1.25l-2.265625 0zm22.316406 6.921875l-5.78125 0l0 4.875l5.515625 0l0.15625 -2.046875l2.59375 0l0 4.671875l-13.5 0l0 -2.046875l1.8125 -0.359375l0 -12.25l-1.8125 -0.34375l0 -2.0625l1.8125 0l11.671875 0l0 4.671875l-2.625 0l-0.15625 -2.03125l-5.46875 0l0 4.28125l5.78125 0l0 2.640625z" fill-rule="nonzero"/><path fill="#000000" fill-opacity="0.0" d="m70.51706 123.4042l197.19684 0l0 37.16535l-197.19684 0z" fill-rule="evenodd"/><path fill="#ffffff" d="m90.251434 155.4442l-4.421875 -6.90625l-2.375 0l0 6.90625l-2.1875 0l0 -16.921875l5.5625 0q2.890625 0 4.328125 1.390625q1.4375 1.375 1.4375 3.65625q0 2.0625 -1.15625 3.328125q-1.140625 1.25 -3.328125 1.5625l4.609375 6.984375l-2.46875 0zm-6.796875 -8.5l3.1875 0q3.71875 0 3.71875 -3.265625q0 -3.265625 -3.71875 -3.265625l-3.1875 0l0 6.53125zm23.929459 1.1875q0 0.6875 -0.09375 1.1875l-10.546875 0q0.078125 2.265625 1.28125 3.390625q1.21875 1.125 2.96875 1.125q1.59375 0 2.65625 -0.796875q1.0625 -0.8125 1.3125 -2.15625l2.328125 0q-0.25 1.375 -1.078125 2.453125q-0.828125 1.078125 -2.15625 1.6875q-1.3125 0.59375 -2.96875 0.59375q-1.890625 0 -3.359375 -0.8125q-1.453125 -0.828125 -2.28125 -2.34375q-0.828125 -1.53125 -0.828125 -3.59375q0 -2.0625 0.828125 -3.59375q0.828125 -1.546875 2.28125 -2.359375q1.46875 -0.8125 3.359375 -0.8125q1.921875 0 3.34375 0.8125q1.4375 0.8125 2.1875 2.1875q0.765625 1.375 0.765625 3.03125zm-2.21875 0.140625q0.078125 -1.46875 -0.484375 -2.453125q-0.546875 -0.984375 -1.5 -1.453125q-0.953125 -0.484375 -2.09375 -0.484375q-1.796875 0 -3.015625 1.109375q-1.21875 1.109375 -1.328125 3.28125l8.421875 0zm11.366577 5.25l0 1.921875l-1.640625 0q-2.015625 0 -3.015625 -0.953125q-0.984375 -0.96875 -0.984375 -3.21875l0 -7.109375l-1.96875 0l0 -1.890625l1.96875 0l0 -3.296875l2.203125 0l0 3.296875l3.40625 0l0 1.890625l-3.40625 0l0 7.15625q0 1.265625 0.46875 1.734375q0.46875 0.46875 1.625 0.46875l1.34375 0zm9.592606 -11.46875q2.296875 0 3.71875 1.484375q1.421875 1.46875 1.421875 4.25l0 7.65625l-2.1875 0l0 -7.46875q0 -1.96875 -1.015625 -3.015625q-1.0 -1.0625 -2.734375 -1.0625q-1.796875 0 -2.875 1.171875q-1.078125 1.15625 -1.078125 3.390625l0 6.984375l-2.1875 0l0 -17.765625l2.1875 0l0 7.703125q0.5 -1.59375 1.78125 -2.453125q1.296875 -0.875 2.96875 -0.875zm8.119461 -3.65625q0 -0.59375 0.40625 -0.96875q0.40625 -0.375 1.078125 -0.375q0.671875 0 1.078125 0.375q0.40625 0.375 0.40625 0.96875q0 0.609375 -0.40625 0.984375q-0.40625 0.359375 -1.078125 0.359375q-0.671875 0 -1.078125 -0.359375q-0.40625 -0.375 -0.40625 -0.984375zm2.5625 3.875l0 13.171875l-2.1875 0l0 -13.171875l2.1875 0zm10.437988 -0.21875q2.296875 0 3.71875 1.484375q1.421875 1.46875 1.421875 4.25l0 7.65625l-2.1875 0l0 -7.46875q0 -1.96875 -1.015625 -3.015625q-1.0 -1.0625 -2.734375 -1.0625q-1.796875 0 -2.875 1.171875q-1.078125 1.15625 -1.078125 3.390625l0 6.984375l-2.1875 0l0 -13.171875l2.1875 0l0 3.109375q0.5 -1.59375 1.78125 -2.453125q1.296875 -0.875 2.96875 -0.875zm15.713211 13.390625l-5.03125 -5.921875l0 5.921875l-2.1875 0l0 -17.765625l2.1875 0l0 10.328125l4.96875 -5.734375l2.65625 0l-5.90625 6.546875l6.0625 6.625l-2.75 0zm16.78621 -7.3125q0 0.6875 -0.09375 1.1875l-10.546875 0q0.078125 2.265625 1.28125 3.390625q1.21875 1.125 2.96875 1.125q1.59375 0 2.65625 -0.796875q1.0625 -0.8125 1.3125 -2.15625l2.328125 0q-0.25 1.375 -1.078125 2.453125q-0.828125 1.078125 -2.15625 1.6875q-1.3125 0.59375 -2.96875 0.59375q-1.890625 0 -3.359375 -0.8125q-1.453125 -0.828125 -2.28125 -2.34375q-0.828125 -1.53125 -0.828125 -3.59375q0 -2.0625 0.828125 -3.59375q0.828125 -1.546875 2.28125 -2.359375q1.46875 -0.8125 3.359375 -0.8125q1.921875 0 3.34375 0.8125q1.4375 0.8125 2.1875 2.1875q0.765625 1.375 0.765625 3.03125zm-2.21875 0.140625q0.078125 -1.46875 -0.484375 -2.453125q-0.546875 -0.984375 -1.5 -1.453125q-0.953125 -0.484375 -2.09375 -0.484375q-1.796875 0 -3.015625 1.109375q-1.21875 1.109375 -1.328125 3.28125l8.421875 0zm10.475952 -6.171875q1.921875 0 3.25 0.96875q1.328125 0.953125 1.859375 2.5625l0 -7.953125l2.1875 0l0 17.765625l-2.1875 0l0 -3.359375q-0.53125 1.609375 -1.859375 2.578125q-1.328125 0.953125 -3.25 0.953125q-1.75 0 -3.125 -0.8125q-1.375 -0.828125 -2.15625 -2.34375q-0.765625 -1.53125 -0.765625 -3.59375q0 -2.0625 0.765625 -3.59375q0.78125 -1.546875 2.15625 -2.359375q1.375 -0.8125 3.125 -0.8125zm0.625 1.9375q-2.015625 0 -3.234375 1.296875q-1.203125 1.28125 -1.203125 3.53125q0 2.265625 1.203125 3.546875q1.21875 1.28125 3.234375 1.28125q1.296875 0 2.3125 -0.59375q1.015625 -0.609375 1.59375 -1.703125q0.578125 -1.09375 0.578125 -2.53125q0 -1.4375 -0.578125 -2.53125q-0.578125 -1.109375 -1.59375 -1.703125q-1.015625 -0.59375 -2.3125 -0.59375z" fill-rule="nonzero"/></g></svg>